<svg xmlns="http://www.w3.org/2000/svg" viewBox="0 0 2309.38 970.72"><g id="Camada_2" data-name="Camada 2"><g id="Camada_3" data-name="Camada 3"><path d="M620.07,428.8c-14.78-14.86-149.41-144.11-324.5-105.7C143.23,356.52,27.87,499.6,9.67,674.56c-2.45-185,35.18-316.28,72.81-405,30.63-72.2,81.63-164.23,43.48-226.18C109.58,16.8,75.29-6.65,50.6,1.73,23.48,10.93,14.71,56.24,10,94c-18.67,150.36-6.67,455.9-.7,583.75Q8.54,685.83,8,694l4,.26C23.28,512.39,140.21,361.41,296.41,327.14c173-38,306.22,89.91,320.84,104.61,145.18,146,108.19,354.66,90.34,402.53-7.49,20.1-25,67.16-61.32,75.92a54.18,54.18,0,0,1-19.53.91c-71.4-53.64-137.34-81.7-182-96.92-68.3-23.3-148.22-50.55-235.72-22.82C136.79,814.26,67.87,872,76.69,900.49c6.66,21.56,56.64,25.25,92.74,23.81,115.81-4.62,265.64-7.14,458.44-8.88a60.27,60.27,0,0,0,6.12.35,56.22,56.22,0,0,0,13.2-1.55c38.35-9.26,56.44-57.75,64.16-78.46C729.4,787.35,766.81,576.42,620.07,428.8Z"/><path d="M1074.28,924.48c-27,5.31-114.22-208.39-88-427.2,4.25-35.36,13.83-115.17,41.89-119.37,27.56-4.11,67.5,65.57,81.67,131.93,14.91,69.85-5.84,102.66-20.94,222C1071.34,870.76,1087.37,921.9,1074.28,924.48Z"/><path d="M2287.42,920.72c-9.39,1-22.75-28-122.5-603.1-31.46-181.37-48.87-292.34-9.42-311C2182.74-6.23,2229.38,27.46,2256,60c62.15,76,19.57,151,24.09,340.73,3.75,157.84,35.27,191.29,28.27,370.65C2305.7,839.62,2302.6,919.13,2287.42,920.72Z"/><path d="M1954.16,728.47c-2-8-20.86-78.48-71-84.88-31.16-4-67.39,17.89-73.08,44.1-3,14,3.42,23.71,12.37,37.18,6.28,9.45,14.09,21.22,20.71,37.91,12.91,32.48,16.57,71.4,9.35,99.16-13,49.89-71.27,90.75-148.51,104.15-63.28-2.41-132.79-21.41-190.75-52.12C1453,882,1400.6,833,1361.59,772.39A744,744,0,0,0,1575,633.21l1.79-1.66L1380,462.62c6.42,0,12.83.06,19.28.06,57,0,115-1.08,172.78-3.22,145.87-5.4,186.31-13.43,196.7-39,10.77-26.62-11.16-64.08-38-79.79-33.84-19.83-74.12-4.77-142.38,23.55-71.22,29.55-143.64,61.26-215.24,94.27a2.18,2.18,0,0,0-1.22,2.44,2.1,2.1,0,0,0,.72,1.19h0l197.61,169.6a740.17,740.17,0,0,1-212.75,137.71l-2.36,1,1.37,2.17c39.56,62.28,93.07,112.51,154.74,145.25,53,28.09,115.57,46.42,174.4,51.46l-2.38.41,20.84.78q6.87.25,13.6.25c67.58,0,125-19.35,166.67-56.34C1930.07,873.81,1971.39,798.32,1954.16,728.47Z"/><circle cx="1048.24" cy="186.02" r="75.7"/></g></g></svg>